<svg xmlns="http://www.w3.org/2000/svg" width="1200" height="750" viewBox="0 0 1200 750">
  <defs>
    <linearGradient id="bg" x1="0" y1="0" x2="1" y2="1">
      <stop offset="0%" stop-color="#0b1220"/>
      <stop offset="100%" stop-color="#111827"/>
    </linearGradient>
    <linearGradient id="accent" x1="0" y1="0" x2="1" y2="0">
      <stop offset="0%" stop-color="#14b8a6"/>
      <stop offset="100%" stop-color="#0d9488"/>
    </linearGradient>
  </defs>
  <rect width="1200" height="750" fill="url(#bg)"/>
  <rect x="0" y="0" width="1200" height="6" fill="url(#accent)"/>
  <rect x="60" y="60" width="1080" height="630" rx="14" fill="#0f172a" stroke="#1f2937" stroke-width="2"/>
  <circle cx="96" cy="94" r="7" fill="#ef4444"/>
  <circle cx="120" cy="94" r="7" fill="#f59e0b"/>
  <circle cx="144" cy="94" r="7" fill="#22c55e"/>
  <line x1="60" y1="118" x2="1140" y2="118" stroke="#1f2937" stroke-width="2"/>
  <g transform="translate(600,400)" text-anchor="middle">
    <circle cx="0" cy="-70" r="42" fill="none" stroke="#14b8a6" stroke-width="4" opacity="0.7"/>
    <path d="M -18 -78 L -6 -90 L 6 -90 L 18 -78 L 26 -78 L 26 -54 L -26 -54 L -26 -78 Z" fill="none" stroke="#14b8a6" stroke-width="4" opacity="0.7"/>
    <circle cx="0" cy="-66" r="10" fill="none" stroke="#14b8a6" stroke-width="4" opacity="0.7"/>
    <text x="0" y="10" font-family="Segoe UI, Helvetica, Arial, sans-serif" font-size="34" font-weight="700" fill="#e5e7eb">Port Forwarding</text>
    <text x="0" y="46" font-family="Segoe UI, Helvetica, Arial, sans-serif" font-size="18" fill="#5eead4">Local, remote, and dynamic SOCKS5 tunnels</text>
    <text x="0" y="86" font-family="Segoe UI, Helvetica, Arial, sans-serif" font-size="15" fill="#6b7280">Screenshot coming soon</text>
  </g>
</svg>